<svg width="60" height="60" viewBox="0 0 60 60" fill="none" xmlns="http://www.w3.org/2000/svg">
<path d="M51.4606 10.8333C50.7939 10.8333 50.1273 10.5833 49.7106 10.0833L48.7939 9.16667C48.2106 8.58333 47.544 8 46.9606 7.5L42.7106 4.33333C41.7939 3.66667 40.7106 3.08333 39.6273 2.75L37.3773 2C36.794 1.83333 36.2106 2.25 36.2106 2.83333C36.2106 3.08333 35.9606 3.33333 35.7106 3.33333H34.2106C33.9606 3.33333 33.7106 3.08333 33.7106 2.83333V1.83333C33.7106 1.33333 33.2106 0.916667 32.7106 1L31.2106 1.33333C30.7106 1.41667 30.3773 1.83333 30.3773 2.33333C30.3773 2.91667 30.794 3.33333 31.3773 3.33333H31.6273C32.2106 3.33333 32.6273 3.91667 32.3773 4.5L30.6273 8.66667C30.4606 9 30.2106 9.16667 29.8773 9.16667H25.8773C25.2939 9.16667 24.8773 8.58333 25.1273 8L26.1273 4C26.2106 3.66667 26.544 3.33333 26.9606 3.33333H27.044C27.4606 3.33333 27.8773 3 27.8773 2.5C27.4606 2 26.7106 1.83333 26.1273 2.16667L17.8773 6.33333C17.294 6.58333 16.794 6.66667 16.294 6.66667H14.294C13.4606 6.66667 13.1273 5.58333 13.8773 5.08333L17.794 2.75C19.044 2 20.2939 1.41667 21.6273 1C23.5439 0.333333 25.6273 0 27.7106 0H33.3773C35.2939 0 37.2106 0.25 39.044 0.75C41.044 1.33333 43.0439 2.25 44.7939 3.41667L46.9606 4.91667C48.7106 6.08333 50.2939 7.5 51.6273 9.16667L52.0439 9.75C52.2939 10.1667 52.0439 10.8333 51.4606 10.8333Z" fill="#777777"/>
<path d="M52.9604 48.75L52.7937 49C51.7104 50.75 50.377 52.25 48.7104 53.5C48.127 53.9167 47.5437 54.3334 46.877 54.5834C46.2937 54.9167 45.4604 55.25 45.127 55.4167L35.127 59.6667C34.7104 59.8334 34.2937 59.9167 33.877 59.9167C32.9604 59.9167 32.7104 58.75 33.5437 58.3334L38.9604 55.5834C39.877 55.0834 40.877 54.9167 41.9604 54.9167H42.2937C42.7104 54.9167 43.0437 54.8334 43.377 54.6667L44.127 54.25C44.377 54.1667 44.627 54 44.7937 53.75L50.9604 47.5834C51.127 47.4167 51.2937 47.3334 51.5437 47.3334H52.2104C52.877 47.5 53.2937 48.1667 52.9604 48.75Z" fill="#777777"/>
<path d="M57.0436 36.6667L53.9603 43.4167C53.2936 44.9167 51.7936 45.8334 50.127 45.8334H49.9603C48.5436 45.8334 47.127 46.3334 46.0436 47.3334L45.127 48.0834L41.877 53C41.377 53.6667 40.627 54.0834 39.7936 54.0834H33.877C33.127 54.0834 32.377 54.4167 31.877 54.9167L30.877 55.9167C30.7103 56.0834 30.627 56.25 30.4603 56.4167L30.0436 57.5C29.7103 58 29.2103 58.3334 28.627 58.3334H24.5436C23.627 58.3334 22.877 57.5834 22.877 56.6667V54.8334C22.877 54.4167 22.7103 54 22.377 53.6667L20.877 52.1667C20.5436 51.8334 20.127 51.6667 19.7103 51.6667H18.7103C17.7936 51.6667 17.0436 52.4167 17.0436 53.3334V55.8334C17.0436 56.75 16.2936 57.5 15.377 57.5H15.2103C14.7936 57.5 14.377 57.3334 14.0436 57L10.2936 53.25C9.54365 52.5 9.87698 51.0834 10.9603 50.8334C11.0436 50.8334 11.127 50.8334 11.2103 50.8334H12.0436C13.4603 50.8334 14.5436 49.75 14.5436 48.3334V45C14.5436 44.0834 15.2936 43.3334 16.2103 43.3334H22.0436C22.9603 43.3334 23.7103 44.0834 23.7103 45L23.627 49.9167C23.627 51 24.0436 52.0834 24.877 52.9167L24.9603 53C25.7103 53.75 26.7936 54.25 27.877 54.25H29.7936C30.377 54.25 30.9603 54.0834 31.4603 53.6667C31.7103 53.5 31.9603 53.25 32.127 53L35.5436 47.8334C36.0436 47.1667 36.7936 46.75 37.627 46.75H41.877C42.627 46.75 43.4603 46.5 44.0436 46L44.4603 45.6667C44.877 45.3334 45.2103 44.9167 45.4603 44.5L48.7103 38.5834C49.2936 37.5 50.377 36.8334 51.627 36.8334H53.377C54.127 36.8334 54.877 36.5 55.377 35.8334L56.627 34.1667C56.9603 33.75 57.127 33.1667 57.127 32.6667V24.1667C57.127 23.6667 57.4603 23.3334 57.9603 23.3334H58.0436C58.4603 23.3334 58.877 23.6667 58.877 24.0834L59.5436 31.75C59.627 32.75 59.377 33.75 58.7103 34.5834L57.0436 36.6667Z" fill="#777777"/>
<path d="M10.9605 5.83334L10.4605 7.33334C10.4605 7.41668 10.3771 7.58334 10.2938 7.66668L4.79382 13.1667C4.62715 13.25 4.46048 13.3333 4.21048 13.3333C3.62715 13.3333 3.21048 12.6667 3.54382 12.1667C5.62715 8.83334 8.96048 6.50001 10.4605 5.50001C10.7105 5.33334 11.0438 5.58334 10.9605 5.83334Z" fill="#777777"/>
<path d="M12.8771 31.1667V39.75C12.8771 40.4167 12.3771 40.9167 11.7104 40.9167H9.54375C8.12709 40.9167 7.04375 42 7.04375 43.4167V48.9167C7.04375 49.5 6.54375 50 5.87709 50C5.54375 50 5.21042 49.8333 5.04375 49.5833L3.21042 47.4167C1.87709 45.8333 1.04375 43.9167 0.793754 41.8333L0.543755 39.5833C0.460421 38.9167 0.960421 38.3333 1.62709 38.3333H2.04375C3.46042 38.3333 4.54375 37.25 4.54375 35.8333V31.1667C4.54375 30.5 5.04375 30 5.71042 30H11.7938C12.3771 30 12.8771 30.5 12.8771 31.1667Z" fill="#777777"/>
<path d="M20.2105 11.4167L17.7105 15.6667C17.3771 16.25 16.7105 16.6667 15.9605 16.6667H11.5438C10.7938 16.6667 10.0438 17 9.54381 17.5C8.54381 18.5 7.71048 19.6667 7.12715 20.9167L5.21048 24.6667C4.79381 25.4167 4.04381 25.8334 3.29381 25.8334H2.04381C0.543811 25.8334 -0.456189 24.25 0.210478 22.8334L3.12714 16.9167C3.46048 16.25 4.21048 15.8334 4.96048 15.8334H7.54381C8.29381 15.8334 9.04381 15.5 9.54381 15C9.71048 14.8334 9.79381 14.6667 9.96048 14.5L13.0438 9.33337C13.3771 8.75004 14.0438 8.33337 14.7938 8.33337H18.3771C20.0438 8.33337 20.9605 10.0834 20.2105 11.4167Z" fill="#777777"/>
<path d="M55.7938 21.6666H51.7938C51.4605 21.6666 51.2105 21.5 51.0438 21.1666L48.0438 14.5C47.6271 13.5833 47.0438 12.75 46.2938 12C45.5438 11.25 44.4605 10.75 43.3771 10.75C42.2938 10.75 41.2104 11.1666 40.4604 12L40.3771 12.0833C39.8771 12.5833 39.6271 13.1666 39.6271 13.8333V18.3333C39.6271 19.25 38.8771 20 37.9604 20H33.7938C32.2104 20 30.7938 20.5833 29.7105 21.6666L28.8771 22.5C27.7938 23.5833 27.1271 25.0833 27.1271 26.6666V27.4166C27.1271 29 27.7104 30.4166 28.7938 31.5L29.7105 32.4166C30.7938 33.5 32.2938 34.0833 33.7938 34.0833C35.3771 34.0833 36.7938 33.5 37.8771 32.4166L38.7104 31.6666C39.7938 30.5833 40.3771 29.0833 40.3771 27.5833V24.1666C40.3771 23.25 41.1271 22.5 42.0438 22.5H47.8771C48.7938 22.5 49.5438 23.25 49.5438 24.1666V31.6666C49.5438 32.5833 48.7938 33.3333 47.8771 33.3333H44.5438C42.9605 33.3333 41.5438 33.9166 40.4604 35L37.9604 37.5C36.8771 38.5833 36.2938 40.0833 36.2938 41.5833V42.4166C36.2938 43.3333 35.5438 44.0833 34.6271 44.0833H27.9604C27.0438 44.0833 26.2938 43.3333 26.2938 42.4166V36.4166C26.2938 34.9166 25.7105 33.4166 24.6271 32.3333L23.9604 31.6666C22.8771 30.5 21.3771 29.9166 19.7938 29.9166H17.8771C16.9604 29.9166 16.2104 29.1666 16.2104 28.25V20.75C16.2104 19.8333 16.9604 19.0833 17.8771 19.0833H24.6271C26.2105 19.0833 27.6271 18.5 28.7938 17.3333L29.5438 16.5833C30.6271 15.5 31.2938 14 31.2938 12.4166V12.5C31.2938 11.5833 32.0438 10.8333 32.9604 10.8333H37.4604C38.5438 10.8333 39.3771 9.83329 39.0438 8.74996C38.8771 8.16663 38.5438 7.58329 38.2105 7.08329L37.1271 5.49996C36.7105 4.91663 37.1271 4.16663 37.7938 4.16663H42.0438C42.2938 4.16663 42.5438 4.33329 42.7104 4.49996L46.0438 9.41663C46.2105 9.66663 46.3771 9.83329 46.5438 9.99996L47.7938 11.25C48.5438 12 49.6271 12.5 50.7105 12.5H52.2938C52.6271 12.5 52.8771 12.6666 53.0438 13L56.4605 20.5C56.7938 21 56.3771 21.6666 55.7938 21.6666Z" fill="#777777"/>
</svg>
