<svg width="60" height="60" viewBox="0 0 60 60" fill="none" xmlns="http://www.w3.org/2000/svg">
<g clip-path="url(#clip0_260_183)">
<path d="M56.25 21.6667H52.25C51.9167 21.6667 51.6667 21.5 51.5 21.1667L48.5 14.5C48.0833 13.5833 47.5 12.75 46.75 12C46 11.25 44.9167 10.75 43.8333 10.75C42.75 10.75 41.6667 11.1667 40.9167 12L40.8333 12.0833C40.3333 12.5833 40.0833 13.1667 40.0833 13.8333V18.3333C40.0833 19.25 39.3333 20 38.4167 20H34.25C32.6667 20 31.25 20.5833 30.1667 21.6667L29.3333 22.5C28.25 23.5833 27.5833 25.0833 27.5833 26.6667V27.4167C27.5833 29 28.1667 30.4167 29.25 31.5L30.1667 32.4167C31.25 33.5 32.75 34.0833 34.25 34.0833C35.8333 34.0833 37.25 33.5 38.3333 32.4167L39.1667 31.6667C40.25 30.5833 40.8333 29.0833 40.8333 27.5833V24.1667C40.8333 23.25 41.5833 22.5 42.5 22.5H48.3333C49.25 22.5 50 23.25 50 24.1667V31.6667C50 32.5833 49.25 33.3333 48.3333 33.3333H45C43.4167 33.3333 42 33.9167 40.9167 35L38.4167 37.5C37.3333 38.5833 36.75 40.0833 36.75 41.5833V42.4167C36.75 43.3333 36 44.0833 35.0833 44.0833H28.4167C27.5 44.0833 26.75 43.3333 26.75 42.4167V36.4167C26.75 34.9167 26.1667 33.4167 25.0833 32.3333L24.4167 31.6667C23.3333 30.5 21.8333 29.9167 20.25 29.9167H18.3333C17.4167 29.9167 16.6667 29.1667 16.6667 28.25V20.75C16.6667 19.8333 17.4167 19.0833 18.3333 19.0833H25.0833C26.6667 19.0833 28.0833 18.5 29.25 17.3333L30 16.5833C31.0833 15.5 31.75 14 31.75 12.4167V12.5C31.75 11.5833 32.5 10.8333 33.4167 10.8333H37.9167C39 10.8333 39.8333 9.83332 39.5 8.74999C39.3333 8.16666 39 7.58332 38.6667 7.08332L37.5833 5.49999C37.1667 4.91666 37.5833 4.16666 38.25 4.16666H42.5C42.75 4.16666 43 4.33332 43.1667 4.49999L46.5 9.41666C46.6667 9.66666 46.8333 9.83332 47 9.99999L48.25 11.25C49 12 50.0833 12.5 51.1667 12.5H52.75C53.0833 12.5 53.3333 12.6667 53.5 13L56.9167 20.5C57.25 21 56.8333 21.6667 56.25 21.6667Z" fill="#1D6295"/>
<path d="M20.6667 11.4167L18.1667 15.6667C17.8333 16.25 17.1667 16.6667 16.4167 16.6667H12C11.25 16.6667 10.5 17 10 17.5C9 18.5 8.16667 19.6667 7.58334 20.9167L5.66667 24.6667C5.25 25.4167 4.5 25.8333 3.75 25.8333H2.5C1 25.8333 3.27826e-06 24.25 0.66667 22.8333L3.58334 16.9167C3.91667 16.25 4.66667 15.8333 5.41667 15.8333H8C8.75 15.8333 9.5 15.5 10 15C10.1667 14.8333 10.25 14.6667 10.4167 14.5L13.5 9.33334C13.8333 8.75001 14.5 8.33334 15.25 8.33334H18.8333C20.5 8.33334 21.4167 10.0833 20.6667 11.4167Z" fill="#1D6295"/>
<path d="M13.3333 31.1667V39.75C13.3333 40.4167 12.8333 40.9167 12.1667 40.9167H10C8.58333 40.9167 7.5 42 7.5 43.4167V48.9167C7.5 49.5 7 50 6.33333 50C6 50 5.66667 49.8333 5.5 49.5833L3.66667 47.4167C2.33333 45.8333 1.5 43.9167 1.25 41.8333L1 39.5833C0.916667 38.9167 1.41667 38.3333 2.08333 38.3333H2.5C3.91667 38.3333 5 37.25 5 35.8333V31.1667C5 30.5 5.5 30 6.16667 30H12.25C12.8333 30 13.3333 30.5 13.3333 31.1667Z" fill="#1D6295"/>
<path d="M11.4167 5.83334L10.9167 7.33334C10.9167 7.41668 10.8333 7.58334 10.75 7.66668L5.25 13.1667C5.08333 13.25 4.91667 13.3333 4.66667 13.3333C4.08333 13.3333 3.66667 12.6667 4 12.1667C6.08333 8.83334 9.41667 6.50001 10.9167 5.50001C11.1667 5.33334 11.5 5.58334 11.4167 5.83334Z" fill="#1D6295"/>
<path d="M57.5 36.6667L54.4167 43.4167C53.75 44.9167 52.25 45.8333 50.5833 45.8333H50.4167C49 45.8333 47.5833 46.3333 46.5 47.3333L45.5833 48.0833L42.3333 53C41.8333 53.6667 41.0833 54.0833 40.25 54.0833H34.3333C33.5833 54.0833 32.8333 54.4167 32.3333 54.9167L31.3333 55.9167C31.1667 56.0833 31.0833 56.25 30.9167 56.4167L30.5 57.5C30.1667 58 29.6667 58.3333 29.0833 58.3333H25C24.0833 58.3333 23.3333 57.5833 23.3333 56.6667V54.8333C23.3333 54.4167 23.1667 54 22.8333 53.6667L21.3333 52.1667C21 51.8333 20.5833 51.6667 20.1667 51.6667H19.1667C18.25 51.6667 17.5 52.4167 17.5 53.3333V55.8333C17.5 56.75 16.75 57.5 15.8333 57.5H15.6667C15.25 57.5 14.8333 57.3333 14.5 57L10.75 53.25C10 52.5 10.3333 51.0833 11.4167 50.8333C11.5 50.8333 11.5833 50.8333 11.6667 50.8333H12.5C13.9167 50.8333 15 49.75 15 48.3333V45C15 44.0833 15.75 43.3333 16.6667 43.3333H22.5C23.4167 43.3333 24.1667 44.0833 24.1667 45L24.0833 49.9167C24.0833 51 24.5 52.0833 25.3333 52.9167L25.4167 53C26.1667 53.75 27.25 54.25 28.3333 54.25H30.25C30.8333 54.25 31.4167 54.0833 31.9167 53.6667C32.1667 53.5 32.4167 53.25 32.5833 53L36 47.8333C36.5 47.1667 37.25 46.75 38.0833 46.75H42.3333C43.0833 46.75 43.9167 46.5 44.5 46L44.9167 45.6667C45.3333 45.3333 45.6667 44.9167 45.9167 44.5L49.1667 38.5833C49.75 37.5 50.8333 36.8333 52.0833 36.8333H53.8333C54.5833 36.8333 55.3333 36.5 55.8333 35.8333L57.0833 34.1667C57.4167 33.75 57.5833 33.1667 57.5833 32.6667V24.1667C57.5833 23.6667 57.9167 23.3333 58.4167 23.3333H58.5C58.9167 23.3333 59.3333 23.6667 59.3333 24.0833L60 31.75C60.0833 32.75 59.8333 33.75 59.1667 34.5833L57.5 36.6667Z" fill="#1D6295"/>
<path d="M53.4167 48.75L53.25 49C52.1667 50.75 50.8333 52.25 49.1667 53.5C48.5833 53.9166 48 54.3333 47.3333 54.5833C46.75 54.9166 45.9167 55.25 45.5833 55.4166L35.5833 59.6666C35.1667 59.8333 34.75 59.9166 34.3333 59.9166C33.4167 59.9166 33.1667 58.75 34 58.3333L39.4167 55.5833C40.3333 55.0833 41.3333 54.9166 42.4167 54.9166H42.75C43.1667 54.9166 43.5 54.8333 43.8333 54.6666L44.5833 54.25C44.8333 54.1666 45.0833 54 45.25 53.75L51.4167 47.5833C51.5833 47.4166 51.75 47.3333 52 47.3333H52.6667C53.3333 47.5 53.75 48.1666 53.4167 48.75Z" fill="#1D6295"/>
<path d="M51.9167 10.8333C51.25 10.8333 50.5833 10.5833 50.1667 10.0833L49.25 9.16667C48.6667 8.58333 48 8 47.4167 7.5L43.1667 4.33333C42.25 3.66667 41.1667 3.08333 40.0833 2.75L37.8333 2C37.25 1.83333 36.6667 2.25 36.6667 2.83333C36.6667 3.08333 36.4167 3.33333 36.1667 3.33333H34.6667C34.4167 3.33333 34.1667 3.08333 34.1667 2.83333V1.83333C34.1667 1.33333 33.6667 0.916667 33.1667 1L31.6667 1.33333C31.1667 1.41667 30.8333 1.83333 30.8333 2.33333C30.8333 2.91667 31.25 3.33333 31.8333 3.33333H32.0833C32.6667 3.33333 33.0833 3.91667 32.8333 4.5L31.0833 8.66667C30.9167 9 30.6667 9.16667 30.3333 9.16667H26.3333C25.75 9.16667 25.3333 8.58333 25.5833 8L26.5833 4C26.6667 3.66667 27 3.33333 27.4167 3.33333H27.5C27.9167 3.33333 28.3333 3 28.3333 2.5C27.9167 2 27.1667 1.83333 26.5833 2.16667L18.3333 6.33333C17.75 6.58333 17.25 6.66667 16.75 6.66667H14.75C13.9167 6.66667 13.5833 5.58333 14.3333 5.08333L18.25 2.75C19.5 2 20.75 1.41667 22.0833 1C24 0.333333 26.0833 0 28.1667 0H33.8333C35.75 0 37.6667 0.25 39.5 0.75C41.5 1.33333 43.5 2.25 45.25 3.41667L47.4167 4.91667C49.1667 6.08333 50.75 7.5 52.0833 9.16667L52.5 9.75C52.75 10.1667 52.5 10.8333 51.9167 10.8333Z" fill="#1D6295"/>
</g>
<defs>
<clipPath id="clip0_260_183">
<rect width="60" height="60" fill="white"/>
</clipPath>
</defs>
</svg>
